<svg width="203" height="172" viewBox="0 0 203 172" fill="none" xmlns="http://www.w3.org/2000/svg">
<path fill-rule="evenodd" clip-rule="evenodd" d="M44.0542 40.1588C51.2079 55.6972 66.8307 66.5316 85.0075 66.7467L85.5591 66.75H110.029C120.964 66.75 129.829 75.6148 129.829 86.55C129.829 97.3701 121.15 106.163 110.374 106.347L110.029 106.35H85.5591C38.4668 106.35 0.291016 68.1742 0.291016 21.082L0.293927 20.3774L0.302661 19.6728L0.624525 0.200012H116.625C163.92 0.200012 202.26 38.5401 202.26 85.835C202.26 132.657 164.683 170.702 118.041 171.459L116.625 171.47H81.48C70.5447 171.47 61.68 162.605 61.68 151.67C61.68 140.85 70.3591 132.057 81.1353 131.873L81.48 131.87H116.625C142.049 131.87 162.66 111.259 162.66 85.835C162.66 60.6648 142.46 40.2127 117.386 39.8062L116.625 39.8H43.892L44.0542 40.1588Z" fill="white"/>
</svg>
